<svg xmlns="http://www.w3.org/2000/svg" width="16" height="16" fill="currentColor" viewBox="0 0 16 16" aria-hidden="true">
  <path d="M13.601 2.326A7.85 7.85 0 0 0 7.994 0C3.627 0 .068 3.558.064 7.926c0 1.399.366 2.76 1.057 3.965L0 16l4.204-1.102a7.9 7.9 0 0 0 3.79.965h.004c4.368 0 7.926-3.558 7.93-7.93A7.9 7.9 0 0 0 13.6 2.326zM7.994 14.521a6.6 6.6 0 0 1-3.356-.92l-.24-.144-2.494.654.666-2.433-.156-.251a6.56 6.56 0 0 1-1.007-3.505c0-3.621 2.947-6.569 6.569-6.571a6.56 6.56 0 0 1 4.642 1.922 6.56 6.56 0 0 1 1.919 4.644c-.002 3.621-2.95 6.569-6.571 6.569m3.75-5.568c-.205-.102-1.213-.598-1.401-.666s-.325-.102-.462.102-.53.666-.65.803-.239.154-.444.052-.867-.319-1.651-1.015c-.61-.544-1.022-1.215-1.142-1.419s-.013-.314.09-.416c.092-.092.205-.239.307-.359s.136-.205.205-.342.034-.256-.017-.359-.462-1.11-.633-1.521c-.167-.4-.337-.346-.462-.346h-.393c-.137 0-.359.051-.547.256s-.718.701-.718 1.708.735 1.981.837 2.119.1.174 1.437 2.197c.325.558.65.886.873 1.192.366.504.7.428.963.26.294-.186 1.213-.495 1.384-.974s.171-.888.12-.974-.188-.137-.393-.239"/>
</svg>
